<mxfile host="app.diagrams.net" modified="2023-08-18T11:36:35.723Z" agent="Mozilla/5.0 (Macintosh; Intel Mac OS X 10_15_7) AppleWebKit/605.1.15 (KHTML, like Gecko) Version/16.5.1 Safari/605.1.15" etag="gTIIX8jBVXcLaTHzJc8N" version="21.6.8" type="github">
  <diagram name="Page-1" id="h78i4w3jpvMDHuVKvQ0y">
    <mxGraphModel dx="815" dy="551" grid="1" gridSize="10" guides="1" tooltips="1" connect="1" arrows="1" fold="1" page="1" pageScale="1" pageWidth="827" pageHeight="1169" math="0" shadow="0">
      <root>
        <mxCell id="0" />
        <mxCell id="1" parent="0" />
        <mxCell id="lDMrGSyHlphn9_t9U18--1" value="DB (Claims)" style="shape=cylinder3;whiteSpace=wrap;html=1;boundedLbl=1;backgroundOutline=1;size=15;" vertex="1" parent="1">
          <mxGeometry x="384" y="70" width="60" height="80" as="geometry" />
        </mxCell>
        <mxCell id="lDMrGSyHlphn9_t9U18--2" value="" style="endArrow=none;dashed=1;html=1;dashPattern=1 3;strokeWidth=2;rounded=0;" edge="1" parent="1">
          <mxGeometry width="50" height="50" relative="1" as="geometry">
            <mxPoint x="40" y="40" as="sourcePoint" />
            <mxPoint x="480" y="40" as="targetPoint" />
          </mxGeometry>
        </mxCell>
        <mxCell id="lDMrGSyHlphn9_t9U18--3" value="" style="endArrow=none;dashed=1;html=1;dashPattern=1 3;strokeWidth=2;rounded=0;" edge="1" parent="1">
          <mxGeometry width="50" height="50" relative="1" as="geometry">
            <mxPoint x="480" y="400" as="sourcePoint" />
            <mxPoint x="480" y="40" as="targetPoint" />
          </mxGeometry>
        </mxCell>
        <mxCell id="lDMrGSyHlphn9_t9U18--4" value="" style="endArrow=none;dashed=1;html=1;dashPattern=1 3;strokeWidth=2;rounded=0;" edge="1" parent="1">
          <mxGeometry width="50" height="50" relative="1" as="geometry">
            <mxPoint x="40" y="400" as="sourcePoint" />
            <mxPoint x="480" y="400" as="targetPoint" />
          </mxGeometry>
        </mxCell>
        <mxCell id="lDMrGSyHlphn9_t9U18--5" value="" style="endArrow=none;dashed=1;html=1;dashPattern=1 3;strokeWidth=2;rounded=0;" edge="1" parent="1">
          <mxGeometry width="50" height="50" relative="1" as="geometry">
            <mxPoint x="40" y="400" as="sourcePoint" />
            <mxPoint x="40" y="40" as="targetPoint" />
          </mxGeometry>
        </mxCell>
        <mxCell id="lDMrGSyHlphn9_t9U18--6" value="Car insurance claim request" style="rounded=0;whiteSpace=wrap;html=1;" vertex="1" parent="1">
          <mxGeometry x="550" y="80" width="120" height="60" as="geometry" />
        </mxCell>
        <mxCell id="lDMrGSyHlphn9_t9U18--8" value="" style="endArrow=classic;html=1;rounded=0;exitX=0;exitY=0.5;exitDx=0;exitDy=0;entryX=1;entryY=0.5;entryDx=0;entryDy=0;entryPerimeter=0;" edge="1" parent="1" source="lDMrGSyHlphn9_t9U18--6" target="lDMrGSyHlphn9_t9U18--1">
          <mxGeometry width="50" height="50" relative="1" as="geometry">
            <mxPoint x="380" y="310" as="sourcePoint" />
            <mxPoint x="430" y="260" as="targetPoint" />
          </mxGeometry>
        </mxCell>
        <mxCell id="lDMrGSyHlphn9_t9U18--9" value="Store" style="edgeLabel;html=1;align=center;verticalAlign=middle;resizable=0;points=[];" vertex="1" connectable="0" parent="lDMrGSyHlphn9_t9U18--8">
          <mxGeometry x="-0.3091" relative="1" as="geometry">
            <mxPoint x="-12" y="-10" as="offset" />
          </mxGeometry>
        </mxCell>
        <mxCell id="lDMrGSyHlphn9_t9U18--10" value="OCR&amp;nbsp;" style="rounded=0;whiteSpace=wrap;html=1;" vertex="1" parent="1">
          <mxGeometry x="60" y="90" width="120" height="60" as="geometry" />
        </mxCell>
        <mxCell id="lDMrGSyHlphn9_t9U18--11" value="" style="endArrow=classic;startArrow=classic;html=1;rounded=0;entryX=0;entryY=0;entryDx=0;entryDy=52.5;entryPerimeter=0;exitX=1;exitY=0.5;exitDx=0;exitDy=0;" edge="1" parent="1" source="lDMrGSyHlphn9_t9U18--10" target="lDMrGSyHlphn9_t9U18--1">
          <mxGeometry width="50" height="50" relative="1" as="geometry">
            <mxPoint x="180" y="120" as="sourcePoint" />
            <mxPoint x="230" y="70" as="targetPoint" />
          </mxGeometry>
        </mxCell>
        <mxCell id="lDMrGSyHlphn9_t9U18--12" value="Review system queue" style="rounded=0;whiteSpace=wrap;html=1;" vertex="1" parent="1">
          <mxGeometry x="354" y="250" width="120" height="60" as="geometry" />
        </mxCell>
        <mxCell id="lDMrGSyHlphn9_t9U18--13" value="" style="endArrow=classic;startArrow=classic;html=1;rounded=0;entryX=0.5;entryY=1;entryDx=0;entryDy=0;entryPerimeter=0;exitX=0.5;exitY=0;exitDx=0;exitDy=0;" edge="1" parent="1" source="lDMrGSyHlphn9_t9U18--12" target="lDMrGSyHlphn9_t9U18--1">
          <mxGeometry width="50" height="50" relative="1" as="geometry">
            <mxPoint x="370" y="210" as="sourcePoint" />
            <mxPoint x="420" y="160" as="targetPoint" />
          </mxGeometry>
        </mxCell>
        <mxCell id="lDMrGSyHlphn9_t9U18--15" value="" style="endArrow=classic;html=1;rounded=0;exitX=1;exitY=0.5;exitDx=0;exitDy=0;entryX=0.5;entryY=0.5;entryDx=0;entryDy=0;entryPerimeter=0;" edge="1" parent="1" source="lDMrGSyHlphn9_t9U18--12" target="lDMrGSyHlphn9_t9U18--22">
          <mxGeometry width="50" height="50" relative="1" as="geometry">
            <mxPoint x="380" y="310" as="sourcePoint" />
            <mxPoint x="524" y="280" as="targetPoint" />
          </mxGeometry>
        </mxCell>
        <mxCell id="lDMrGSyHlphn9_t9U18--16" value="Client&lt;br&gt;" style="shape=umlActor;verticalLabelPosition=bottom;verticalAlign=top;html=1;outlineConnect=0;" vertex="1" parent="1">
          <mxGeometry x="730" y="80" width="30" height="60" as="geometry" />
        </mxCell>
        <mxCell id="lDMrGSyHlphn9_t9U18--18" value="" style="endArrow=classic;html=1;rounded=0;exitX=0.5;exitY=0.5;exitDx=0;exitDy=0;exitPerimeter=0;entryX=1;entryY=0.5;entryDx=0;entryDy=0;" edge="1" parent="1" source="lDMrGSyHlphn9_t9U18--16" target="lDMrGSyHlphn9_t9U18--6">
          <mxGeometry width="50" height="50" relative="1" as="geometry">
            <mxPoint x="640" y="260" as="sourcePoint" />
            <mxPoint x="690" y="210" as="targetPoint" />
          </mxGeometry>
        </mxCell>
        <mxCell id="lDMrGSyHlphn9_t9U18--19" value="Intiate" style="edgeLabel;html=1;align=center;verticalAlign=middle;resizable=0;points=[];" vertex="1" connectable="0" parent="lDMrGSyHlphn9_t9U18--18">
          <mxGeometry x="0.04" y="-2" relative="1" as="geometry">
            <mxPoint as="offset" />
          </mxGeometry>
        </mxCell>
        <mxCell id="lDMrGSyHlphn9_t9U18--22" value="Agent" style="shape=umlActor;verticalLabelPosition=bottom;verticalAlign=top;html=1;outlineConnect=0;" vertex="1" parent="1">
          <mxGeometry x="530" y="250" width="30" height="60" as="geometry" />
        </mxCell>
        <mxCell id="lDMrGSyHlphn9_t9U18--23" value="" style="endArrow=classic;html=1;rounded=0;exitX=0.75;exitY=0;exitDx=0;exitDy=0;" edge="1" parent="1" source="lDMrGSyHlphn9_t9U18--12" target="lDMrGSyHlphn9_t9U18--16">
          <mxGeometry width="50" height="50" relative="1" as="geometry">
            <mxPoint x="454.03999999999996" y="250.00000000000003" as="sourcePoint" />
            <mxPoint x="780" y="191" as="targetPoint" />
            <Array as="points">
              <mxPoint x="444" y="190" />
              <mxPoint x="745" y="190" />
            </Array>
          </mxGeometry>
        </mxCell>
        <mxCell id="lDMrGSyHlphn9_t9U18--24" value="Notify with decision" style="edgeLabel;html=1;align=center;verticalAlign=middle;resizable=0;points=[];" vertex="1" connectable="0" parent="lDMrGSyHlphn9_t9U18--23">
          <mxGeometry x="-0.0387" y="-2" relative="1" as="geometry">
            <mxPoint as="offset" />
          </mxGeometry>
        </mxCell>
        <mxCell id="lDMrGSyHlphn9_t9U18--25" value="User" style="swimlane;childLayout=stackLayout;horizontal=1;startSize=50;horizontalStack=0;rounded=1;fontSize=14;fontStyle=0;strokeWidth=2;resizeParent=0;resizeLast=1;shadow=0;dashed=0;align=center;arcSize=4;whiteSpace=wrap;html=1;" vertex="1" parent="1">
          <mxGeometry x="460" y="500" width="160" height="120" as="geometry" />
        </mxCell>
        <mxCell id="lDMrGSyHlphn9_t9U18--26" value="Profile Info&lt;br&gt;contractId&lt;br&gt;contractStartDate&lt;br&gt;contractEndDate" style="align=left;strokeColor=none;fillColor=none;spacingLeft=4;fontSize=12;verticalAlign=top;resizable=0;rotatable=0;part=1;html=1;" vertex="1" parent="lDMrGSyHlphn9_t9U18--25">
          <mxGeometry y="50" width="160" height="70" as="geometry" />
        </mxCell>
        <mxCell id="lDMrGSyHlphn9_t9U18--27" value="Contract" style="swimlane;childLayout=stackLayout;horizontal=1;startSize=50;horizontalStack=0;rounded=1;fontSize=14;fontStyle=0;strokeWidth=2;resizeParent=0;resizeLast=1;shadow=0;dashed=0;align=center;arcSize=4;whiteSpace=wrap;html=1;" vertex="1" parent="1">
          <mxGeometry x="90" y="510" width="160" height="120" as="geometry" />
        </mxCell>
        <mxCell id="lDMrGSyHlphn9_t9U18--28" value="+Id&lt;br&gt;+ContractDetails" style="align=left;strokeColor=none;fillColor=none;spacingLeft=4;fontSize=12;verticalAlign=top;resizable=0;rotatable=0;part=1;html=1;" vertex="1" parent="lDMrGSyHlphn9_t9U18--27">
          <mxGeometry y="50" width="160" height="70" as="geometry" />
        </mxCell>
        <mxCell id="lDMrGSyHlphn9_t9U18--29" value="" style="edgeStyle=entityRelationEdgeStyle;fontSize=12;html=1;endArrow=ERoneToMany;rounded=0;exitX=1;exitY=0.25;exitDx=0;exitDy=0;entryX=-0.025;entryY=0.4;entryDx=0;entryDy=0;entryPerimeter=0;" edge="1" parent="1" source="lDMrGSyHlphn9_t9U18--28" target="lDMrGSyHlphn9_t9U18--26">
          <mxGeometry width="100" height="100" relative="1" as="geometry">
            <mxPoint x="170" y="680" as="sourcePoint" />
            <mxPoint x="444" y="640" as="targetPoint" />
            <Array as="points">
              <mxPoint x="424" y="690" />
            </Array>
          </mxGeometry>
        </mxCell>
        <mxCell id="lDMrGSyHlphn9_t9U18--30" value="Claims" style="swimlane;childLayout=stackLayout;horizontal=1;startSize=50;horizontalStack=0;rounded=1;fontSize=14;fontStyle=0;strokeWidth=2;resizeParent=0;resizeLast=1;shadow=0;dashed=0;align=center;arcSize=4;whiteSpace=wrap;html=1;" vertex="1" parent="1">
          <mxGeometry x="460" y="760" width="180" height="170" as="geometry" />
        </mxCell>
        <mxCell id="lDMrGSyHlphn9_t9U18--31" value="+Id&lt;br&gt;+ClientId&lt;br&gt;+Photo&lt;br&gt;+parsedData (ex: amount)&lt;br&gt;+status&lt;br&gt;+operator&lt;br&gt;+History" style="align=left;strokeColor=none;fillColor=none;spacingLeft=4;fontSize=12;verticalAlign=top;resizable=0;rotatable=0;part=1;html=1;" vertex="1" parent="lDMrGSyHlphn9_t9U18--30">
          <mxGeometry y="50" width="180" height="120" as="geometry" />
        </mxCell>
        <mxCell id="lDMrGSyHlphn9_t9U18--32" value="" style="edgeStyle=entityRelationEdgeStyle;fontSize=12;html=1;endArrow=ERoneToMany;rounded=0;exitX=1;exitY=0.5;exitDx=0;exitDy=0;" edge="1" parent="1" source="lDMrGSyHlphn9_t9U18--26">
          <mxGeometry width="100" height="100" relative="1" as="geometry">
            <mxPoint x="540" y="670" as="sourcePoint" />
            <mxPoint x="450" y="840" as="targetPoint" />
            <Array as="points">
              <mxPoint x="545" y="620" />
              <mxPoint x="520" y="670" />
            </Array>
          </mxGeometry>
        </mxCell>
        <mxCell id="lDMrGSyHlphn9_t9U18--33" value="&lt;ul&gt;&lt;li&gt;Agent can handle all cases without any additional actions&lt;/li&gt;&lt;li&gt;User has only one contract&lt;/li&gt;&lt;li&gt;User can&#39;t submit more than 1 active claim&lt;/li&gt;&lt;/ul&gt;" style="text;strokeColor=none;fillColor=none;html=1;whiteSpace=wrap;verticalAlign=middle;overflow=hidden;" vertex="1" parent="1">
          <mxGeometry x="20" y="760" width="360" height="80" as="geometry" />
        </mxCell>
        <mxCell id="lDMrGSyHlphn9_t9U18--34" value="Assumptions :" style="text;strokeColor=none;fillColor=none;html=1;fontSize=24;fontStyle=1;verticalAlign=middle;align=center;" vertex="1" parent="1">
          <mxGeometry x="70" y="720" width="100" height="40" as="geometry" />
        </mxCell>
      </root>
    </mxGraphModel>
  </diagram>
</mxfile>
